<svg width="32" height="33" viewBox="0 0 32 33" fill="none" xmlns="http://www.w3.org/2000/svg">
<path d="M12.6313 21.0438C12.6313 22.35 11.95 24.4875 10.3375 24.4875C8.725 24.4875 8.04375 22.35 8.04375 21.0438C8.04375 19.7375 8.725 17.6 10.3375 17.6C11.95 17.6 12.6313 19.7375 12.6313 21.0438ZM31 17.8875C31 19.8813 30.8 21.9938 29.9062 23.825C27.5375 28.6125 21.025 28.5 16.3625 28.5C11.625 28.5 4.725 28.6688 2.2625 23.825C1.35 22.0125 1 19.8813 1 17.8875C1 15.2688 1.86875 12.7938 3.59375 10.7875C3.26875 9.8 3.1125 8.7625 3.1125 7.7375C3.1125 6.39375 3.41875 5.71875 4.025 4.5C6.85625 4.5 8.66875 5.0625 10.825 6.75C12.6375 6.31875 14.5 6.125 16.3687 6.125C18.0562 6.125 19.7562 6.30625 21.3937 6.7C23.5187 5.03125 25.3313 4.5 28.1313 4.5C28.7437 5.71875 29.0438 6.39375 29.0438 7.7375C29.0438 8.7625 28.8813 9.78125 28.5625 10.75C30.2812 12.775 31 15.2688 31 17.8875ZM26.9813 21.0438C26.9813 18.3 25.3125 15.8813 22.3875 15.8813C21.2063 15.8813 20.075 16.0938 18.8875 16.2563C17.9563 16.4 17.025 16.4563 16.0688 16.4563C15.1188 16.4563 14.1875 16.4 13.25 16.2563C12.0813 16.0938 10.9375 15.8813 9.75 15.8813C6.825 15.8813 5.15625 18.3 5.15625 21.0438C5.15625 26.5312 10.1812 27.375 14.5562 27.375H17.5688C21.9625 27.375 26.9813 26.5375 26.9813 21.0438ZM21.8188 17.6C20.2063 17.6 19.525 19.7375 19.525 21.0438C19.525 22.35 20.2063 24.4875 21.8188 24.4875C23.4312 24.4875 24.1125 22.35 24.1125 21.0438C24.1125 19.7375 23.4312 17.6 21.8188 17.6Z" fill="black"/>
</svg>
